<svg style="position: absolute; width: 0; height: 0; overflow: hidden;" version="1.1" xmlns="http://www.w3.org/2000/svg"
     xmlns:xlink="http://www.w3.org/1999/xlink">
  <defs>
    <symbol id="icon-linkedin" viewBox="0 0 27 32">
      <title>linkedin</title>
      <path class="path1"
            d="M6.232 11.161v17.696h-5.893v-17.696h5.893zM6.607 5.696q0.018 1.304-0.902 2.179t-2.42 0.875h-0.036q-1.464 0-2.357-0.875t-0.893-2.179q0-1.321 0.92-2.188t2.402-0.866 2.375 0.866 0.911 2.188zM27.429 18.714v10.143h-5.875v-9.464q0-1.875-0.723-2.938t-2.259-1.063q-1.125 0-1.884 0.616t-1.134 1.527q-0.196 0.536-0.196 1.446v9.875h-5.875q0.036-7.125 0.036-11.554t-0.018-5.286l-0.018-0.857h5.875v2.571h-0.036q0.357-0.571 0.732-1t1.009-0.929 1.554-0.777 2.045-0.277q3.054 0 4.911 2.027t1.857 5.938z"></path>
    </symbol>
    <symbol id="icon-envelope" viewBox="0 0 32 32">
      <title>envelope</title>
      <path class="path1"
            d="M32 12.679v14.179q0 1.179-0.839 2.018t-2.018 0.839h-26.286q-1.179 0-2.018-0.839t-0.839-2.018v-14.179q0.786 0.875 1.804 1.554 6.464 4.393 8.875 6.161 1.018 0.75 1.652 1.17t1.688 0.857 1.964 0.438h0.036q0.911 0 1.964-0.438t1.688-0.857 1.652-1.17q3.036-2.196 8.893-6.161 1.018-0.696 1.786-1.554zM32 7.429q0 1.411-0.875 2.696t-2.179 2.196q-6.714 4.661-8.357 5.804-0.179 0.125-0.759 0.545t-0.964 0.679-0.929 0.58-1.027 0.482-0.893 0.161h-0.036q-0.411 0-0.893-0.161t-1.027-0.482-0.929-0.58-0.964-0.679-0.759-0.545q-1.625-1.143-4.679-3.259t-3.661-2.545q-1.107-0.75-2.089-2.063t-0.982-2.438q0-1.393 0.741-2.321t2.116-0.929h26.286q1.161 0 2.009 0.839t0.848 2.018z"></path>
    </symbol>
    <symbol id="icon-github-alt" viewBox="0 0 30 32">
      <title>github-alt</title>
      <path class="path1"
            d="M11.429 21.714q0 0.714-0.223 1.464t-0.768 1.357-1.295 0.607-1.295-0.607-0.768-1.357-0.223-1.464 0.223-1.464 0.768-1.357 1.295-0.607 1.295 0.607 0.768 1.357 0.223 1.464zM22.857 21.714q0 0.714-0.223 1.464t-0.768 1.357-1.295 0.607-1.295-0.607-0.768-1.357-0.223-1.464 0.223-1.464 0.768-1.357 1.295-0.607 1.295 0.607 0.768 1.357 0.223 1.464zM25.714 21.714q0-2.143-1.232-3.643t-3.339-1.5q-0.732 0-3.482 0.375-1.268 0.196-2.804 0.196t-2.804-0.196q-2.714-0.375-3.482-0.375-2.107 0-3.339 1.5t-1.232 3.643q0 1.571 0.571 2.741t1.446 1.839 2.179 1.071 2.5 0.527 2.661 0.125h3q1.464 0 2.661-0.125t2.5-0.527 2.179-1.071 1.446-1.839 0.571-2.741zM29.714 18.571q0 3.696-1.089 5.911-0.679 1.375-1.884 2.375t-2.518 1.536-3.036 0.848-3.063 0.393-2.982 0.080q-1.393 0-2.536-0.054t-2.634-0.223-2.723-0.536-2.446-0.92-2.161-1.446-1.536-2.054q-1.107-2.196-1.107-5.911 0-4.232 2.429-7.071-0.482-1.464-0.482-3.036 0-2.071 0.911-3.893 1.929 0 3.393 0.705t3.375 2.205q2.625-0.625 5.518-0.625 2.643 0 5 0.571 1.875-1.464 3.339-2.161t3.375-0.696q0.911 1.821 0.911 3.893 0 1.554-0.482 3 2.429 2.857 2.429 7.107z"></path>
    </symbol>
  </defs>
</svg>
